<svg enable-background="new 0 0 536.21 127.711" height="127.711" viewBox="0 0 536.21 127.711" width="536.21" xmlns="http://www.w3.org/2000/svg"><path d="m193.494 107.062c-5.257 0-10.285-.974-14.924-2.736-3.661 4.943-7.963 9.312-12.755 13.014 8.259 4.383 17.676 6.872 27.68 6.872l328.268-17.149h-328.269z"/><path d="m144.11 94.611h-1.877c.163.281.333.556.5.834.465-.267.924-.545 1.377-.834z"/><path d="m176.601 94.609c-10.237 17.689-29.352 29.602-51.261 29.602l-117.34-17.149h117.339c11.679 0 22.243-4.766 29.863-12.451h21.399"/><g fill="#8c8c8c"><path d="m400.388 38.021-5.961 24.157h-6.211-3.893-9.496l5.963-24.157h-16.271l-15.447 62.588h16.271l6.371-25.814h12.609 3.893 3.098l-6.371 25.814h16.27l15.445-62.588z"/><path d="m530.968 100.27h-20.035l-9.479-23.811-5.875 23.811h-16.094l15.275-61.906h25.043c3.449 0 6.334.507 8.658 1.519 2.322 1.014 4.105 2.396 5.34 4.146 1.236 1.753 1.996 3.777 2.279 6.075.279 2.301.096 4.764-.553 7.391-1.162 4.709-3.24 8.525-6.234 11.455-2.994 2.928-6.838 4.914-11.527 5.949zm-26.939-34.239h3.037c3.174 0 5.773-.657 7.795-1.971 2.02-1.312 3.336-3.202 3.943-5.666.607-2.463.225-4.351-1.146-5.664-1.373-1.314-3.648-1.971-6.822-1.971h-3.037z"/><path d="m474.509 45.908c-.189-.241-.395-.449-.596-.688-4.09-4.979-9.488-7.895-16.178-8.724-1.342-.166-2.713-.272-4.141-.272-1.461 0-2.865.106-4.27.272-7.391.87-14.189 4.009-20.373 9.468-3.666 3.237-6.58 6.804-8.736 10.69-2.172 3.929-3.582 8.193-4.207 12.772-1.264 9.144.879 16.933 6.441 23.354 5.555 6.414 12.859 9.625 21.924 9.625 8.658 0 16.383-3.305 23.162-9.924l-13.234-8.277c-2.447 1.348-5.041 2.014-7.811 2.014-2.986 0-5.73-.965-8.199-2.896-2.484-1.936-4.172-4.236-5.031-6.915h45.025c.4-.952.992-3.273 1.771-6.979 1.274-9.205-.572-17.059-5.547-23.52zm-39.347 16.666c3.229-6.771 8.66-10.166 16.301-10.166 3.232 0 5.855.91 7.863 2.721 2.012 1.809 3.283 4.302 3.842 7.445z"/></g><path d="m297.164 15.715c.879-.711.398-2.14-.736-2.176l-8.738-.277c-.488-.02-.932-.331-1.104-.8l-3.104-8.173c-.179-.496-.608-.727-1.056-.764-.024 0-.053-.025-.08-.025-.491.01-.965.273-1.146.809l-2.955 8.228c-.175.456-.615.785-1.093.806l-8.746.42c-1.137.045-1.594 1.48-.701 2.182l6.917 5.37c.397.294.571.802.428 1.278l-2.297 8.438c-.299 1.088.916 1.968 1.861 1.331l7.237-4.909c.172-.121.373-.164.575-.187.271-.027.543.017.783.169l7.31 4.806c.94.618 2.153-.274 1.856-1.36l-2.445-8.41c-.145-.472.018-.974.408-1.289z" fill="#f68d2e"/><path d="m289.75 38.361-15.275 61.909h-16.095l15.28-61.909z" fill="#8c8c8c"/><path d="m251.796 100.271h-20.036l-9.478-23.812-5.876 23.812h-16.094l15.278-61.91h25.043c3.449 0 6.333.506 8.658 1.518 2.322 1.014 4.104 2.396 5.34 4.146 1.236 1.754 1.996 3.777 2.279 6.076.279 2.3.096 4.764-.553 7.391-1.162 4.708-3.24 8.526-6.234 11.454-2.994 2.929-6.838 4.914-11.527 5.953zm-26.939-34.24h3.037c3.174 0 5.772-.657 7.794-1.971 2.021-1.312 3.336-3.202 3.943-5.666.607-2.463.225-4.352-1.146-5.666-1.373-1.312-3.647-1.969-6.821-1.969h-3.038z" fill="#8c8c8c"/><path d="m143.494 29.539v15.466h34.845v-15.466h20.396l-37.817-23.289-37.82 23.289z"/><path d="m339.085 90.326-9.932-6.212c-2.436 1.339-5.014 2.001-7.768 2.001-.01 0-.02-.001-.031-.001-.092.002-.182.014-.273.014-4.297 0-7.762-1.633-10.398-4.894-1.939-2.397-2.998-5.172-3.188-8.318-.068-1.135-.027-2.314.133-3.547.297-2.327.965-4.494 1.994-6.49.775-1.501 1.766-2.907 2.957-4.22 2.092-2.629 4.732-4.415 7.928-5.355.953-.312 1.926-.543 2.924-.67.668-.084 1.334-.137 2.023-.137.205 0 .398.014.6.022.094-.002.184-.008.277-.008 3.211 0 5.814.904 7.812 2.704 1.924 1.728 3.156 4.089 3.742 7.043l15.189-9.476c-.951-2.39-2.229-4.636-3.84-6.732-.191-.24-.395-.448-.594-.685-4.066-4.951-9.432-7.846-16.08-8.669-1.328-.165-2.693-.271-4.111-.271-1.451 0-2.85.106-4.246.271-7.344.863-14.102 3.984-20.248 9.409-3.646 3.217-6.541 6.764-8.686 10.625-2.156 3.907-3.561 8.144-4.182 12.696-.332 2.407-.42 4.717-.277 6.938.396 6.152 2.615 11.58 6.68 16.271 5.521 6.376 12.783 9.569 21.791 9.569 8.605 0 16.281-3.286 23.021-9.865l-1.746-1.092z" fill="#8c8c8c"/><path d="m140.828 98.855h40.177c5.221 0 9.453-4.231 9.453-9.453v-40.173c0-5.221-4.232-9.453-9.453-9.453h-40.177c-5.221 0-9.453 4.232-9.453 9.453v40.175c0 5.22 4.232 9.451 9.453 9.451zm-1.395-33.371h17.402v-18.317h8.161v18.317h17.402v7.828h-17.402v18.149h-8.161v-18.149h-17.402z" fill="#f68d2e"/><path d="m182.398 65.484h-17.402v-18.317h-8.161v18.317h-17.402v7.828h17.402v18.15h8.161v-18.15h17.402z" fill="#fff"/><path d="m41.703 100.271 15.278-61.911h16.094l20.382 37.853 9.342-37.853h16.01l-15.278 61.912h-16.01l-20.382-37.854-9.342 37.854h-16.094z" fill="#f68d2e"/><path d="m47.139 51.99h-19.131l-2.552 10.346h18.063l-3.364 13.63h-18.064l-2.634 10.677h19.131l-3.364 13.629h-35.224l15.278-61.908h35.224z" fill="#f68d2e"/></svg>